<mxfile host="app.diagrams.net" modified="2023-08-16T13:27:25.775Z" agent="Mozilla/5.0 (Windows NT 10.0; Win64; x64) AppleWebKit/537.36 (KHTML, like Gecko) Chrome/115.0.0.0 Safari/537.36" version="21.6.8" etag="sSWRN28FJ-3rK73tQFCK" type="github">
  <diagram name="第 1 页" id="qxwPN0AKau7wHtDvvoP9">
    <mxGraphModel>
      <root>
        <mxCell id="0" />
        <mxCell id="1" parent="0" />
      </root>
    </mxGraphModel>
  </diagram>
</mxfile>
